<svg width="27" height="17" viewBox="0 0 27 17" fill="none" xmlns="http://www.w3.org/2000/svg">
<path d="M13.6104 3.08335C18.0293 3.08335 21.9702 5.36126 23.894 8.96529C21.9702 12.5693 18.0293 14.8472 13.6104 14.8472C9.19155 14.8472 5.25069 12.5693 3.3269 8.96529C5.25069 5.36126 9.19155 3.08335 13.6104 3.08335ZM13.6104 0.944458C7.78077 0.944458 2.80222 4.27043 0.785156 8.96529C2.80222 13.6602 7.78077 16.9861 13.6104 16.9861C19.4401 16.9861 24.4187 13.6602 26.4357 8.96529C24.4187 4.27043 19.4401 0.944458 13.6104 0.944458ZM13.6104 6.29168C15.2194 6.29168 16.5253 7.48946 16.5253 8.96529C16.5253 10.4411 15.2194 11.6389 13.6104 11.6389C12.0015 11.6389 10.6956 10.4411 10.6956 8.96529C10.6956 7.48946 12.0015 6.29168 13.6104 6.29168ZM13.6104 4.15279C10.7189 4.15279 8.36374 6.31307 8.36374 8.96529C8.36374 11.6175 10.7189 13.7778 13.6104 13.7778C16.502 13.7778 18.8572 11.6175 18.8572 8.96529C18.8572 6.31307 16.502 4.15279 13.6104 4.15279Z" fill="white"/>
</svg>
