<svg width="14" height="14" viewBox="0 0 14 14" fill="none" xmlns="http://www.w3.org/2000/svg">
<path d="M12.2971 6.1026C13.0959 6.90144 13.5447 7.98489 13.5447 9.11462C13.5447 11.4672 11.6376 13.3743 9.28503 13.3743C8.1553 13.3743 7.07185 12.9255 6.27301 12.1266L4.60718 10.4608L5.75623 9.31177L7.42206 10.9776C7.91615 11.4717 8.58628 11.7493 9.28503 11.7493C10.7401 11.7493 11.9197 10.5697 11.9197 9.11462C11.9197 8.41587 11.6421 7.74574 11.148 7.25165L9.48218 5.58582L10.6312 4.43677L12.2971 6.1026Z" fill="#F7F0EA"/>
<path d="M2.94135 6.49689L4.60718 8.16272L3.45813 9.31177L1.7923 7.64594C0.993461 6.8471 0.544678 5.76364 0.544678 4.63391C0.544678 2.28138 2.45179 0.374268 4.80432 0.374268C5.93405 0.374268 7.01751 0.823049 7.81635 1.62189L9.48218 3.28772L8.33313 4.43677L6.6673 2.77094C6.17321 2.27684 5.50308 1.99927 4.80432 1.99927C3.34925 1.99927 2.16968 3.17884 2.16968 4.63391C2.16968 5.33266 2.44726 6.0028 2.94135 6.49689Z" fill="#F7F0EA"/>
<path d="M4.03265 5.01129L8.90765 9.88629L10.0567 8.73724L5.1817 3.86224L4.03265 5.01129Z" fill="#F7F0EA"/>
</svg>
