<svg width="21" height="21" viewBox="0 0 21 21" fill="none" xmlns="http://www.w3.org/2000/svg">
<path d="M15.0833 13.3333H14.1617L13.835 13.0183C15.235 11.385 15.9583 9.15666 15.5617 6.78833C15.0133 3.545 12.3067 0.954997 9.04 0.558331C4.105 -0.0483359 -0.0483359 4.105 0.558331 9.04C0.954997 12.3067 3.545 15.0133 6.78833 15.5617C9.15667 15.9583 11.385 15.235 13.0183 13.835L13.3333 14.1617V15.0833L18.2917 20.0417C18.77 20.52 19.5517 20.52 20.03 20.0417C20.5083 19.5633 20.5083 18.7817 20.03 18.3033L15.0833 13.3333ZM8.08333 13.3333C5.17833 13.3333 2.83333 10.9883 2.83333 8.08333C2.83333 5.17833 5.17833 2.83333 8.08333 2.83333C10.9883 2.83333 13.3333 5.17833 13.3333 8.08333C13.3333 10.9883 10.9883 13.3333 8.08333 13.3333Z" fill="white"/>
</svg>
