<svg width="28" height="28" viewBox="0 0 28 28" fill="none" xmlns="http://www.w3.org/2000/svg">
<mask id="path-1-outside-1_9_77" maskUnits="userSpaceOnUse" x="0.121094" y="0.119995" width="28" height="28" fill="black">
<rect fill="white" x="0.121094" y="0.119995" width="28" height="28"/>
<path d="M12.4348 1.12C12.3021 1.12007 12.1737 1.16728 12.0725 1.25322C11.9714 1.33916 11.904 1.45823 11.8825 1.58921L11.3378 4.92406C10.6828 5.11459 10.0583 5.37167 9.46969 5.69187L6.71781 3.7264C6.61007 3.64947 6.47856 3.61319 6.34661 3.624C6.21466 3.63481 6.09081 3.69202 5.99703 3.78546L3.81828 5.96203C3.72518 6.0552 3.66789 6.1782 3.65649 6.30943C3.64508 6.44065 3.6803 6.57169 3.75594 6.67953L5.69188 9.4489C5.36673 10.0409 5.10396 10.669 4.90875 11.3302L1.58813 11.8825C1.45755 11.9045 1.33898 11.972 1.25348 12.0732C1.16798 12.1743 1.12108 12.3024 1.12109 12.4348V15.5148C1.12086 15.6465 1.16699 15.774 1.25139 15.875C1.3358 15.976 1.45308 16.044 1.58266 16.0672L4.90547 16.6556C5.09962 17.3156 5.36073 17.9441 5.68641 18.5369L3.72641 21.2789C3.64947 21.3866 3.61319 21.5182 3.624 21.6501C3.63482 21.7821 3.69202 21.9059 3.78547 21.9997L5.96313 24.1784C6.05609 24.2714 6.17882 24.3287 6.3098 24.3403C6.44078 24.3519 6.57167 24.3171 6.67953 24.2419L9.45438 22.2994C10.0447 22.6215 10.6708 22.8804 11.328 23.0727L11.8825 26.4119C11.9043 26.5427 11.9717 26.6615 12.0729 26.7472C12.174 26.8329 12.3023 26.88 12.4348 26.88H15.5148C15.6466 26.8802 15.7743 26.8339 15.8753 26.7493C15.9763 26.6647 16.0443 26.5471 16.0672 26.4173L16.6611 23.065C17.3156 22.8698 17.9387 22.607 18.5259 22.283L21.3194 24.243C21.4272 24.3186 21.5582 24.3538 21.6895 24.3424C21.8207 24.331 21.9437 24.2737 22.0369 24.1806L24.2145 22.0008C24.3084 21.9067 24.3657 21.7824 24.3764 21.6499C24.387 21.5175 24.3502 21.3856 24.2725 21.2778L22.2808 18.5128C22.5992 17.9284 22.8558 17.309 23.0464 16.6589L26.4162 16.0683C26.546 16.0454 26.6636 15.9774 26.7482 15.8764C26.8328 15.7754 26.8791 15.6477 26.8789 15.5159V12.4359C26.8788 12.3032 26.8316 12.1748 26.7457 12.0736C26.6597 11.9725 26.5407 11.9051 26.4097 11.8836L23.0453 11.3334C22.8534 10.6841 22.5962 10.0658 22.2775 9.48172L24.2419 6.68281C24.3175 6.57498 24.3527 6.44393 24.3413 6.31271C24.3299 6.18149 24.2726 6.05848 24.1795 5.96531L22.0008 3.78765C21.9067 3.6938 21.7824 3.63645 21.6499 3.62583C21.5175 3.61521 21.3856 3.65202 21.2778 3.72968L18.5205 5.71265C17.933 5.38989 17.3094 5.12847 16.6534 4.935L16.0672 1.58375C16.0445 1.45377 15.9766 1.33597 15.8756 1.25113C15.7745 1.16629 15.6468 1.11985 15.5148 1.12H12.4348ZM12.9117 2.24H15.0445L15.6023 5.4239C15.6209 5.53069 15.6701 5.62979 15.7438 5.7092C15.8176 5.7886 15.9128 5.8449 16.018 5.87125C16.837 6.07534 17.6062 6.39886 18.3083 6.8239C18.4021 6.88078 18.5107 6.90882 18.6203 6.90454C18.73 6.90026 18.836 6.86385 18.9252 6.79984L21.5458 4.9164L23.0541 6.42468L21.1881 9.08359C21.1258 9.17229 21.0906 9.27717 21.0867 9.3855C21.0828 9.49384 21.1104 9.60097 21.1662 9.6939C21.5871 10.3944 21.9063 11.1588 22.1102 11.9733C22.1367 12.0794 22.1937 12.1753 22.2742 12.2494C22.3547 12.3235 22.455 12.3723 22.563 12.39L25.7589 12.9128V15.0456L22.5564 15.6078C22.4495 15.6267 22.3505 15.6763 22.2712 15.7505C22.192 15.8246 22.1361 15.9202 22.1102 16.0256C21.9086 16.8391 21.5892 17.6034 21.1684 18.3039C21.1119 18.3978 21.0842 18.5061 21.0887 18.6156C21.0932 18.725 21.1296 18.8308 21.1936 18.9197L23.0858 21.5458L21.5775 23.0552L18.923 21.1925C18.8338 21.1301 18.7284 21.0949 18.6196 21.0914C18.5109 21.088 18.4034 21.1162 18.3105 21.1728C17.6119 21.5978 16.8419 21.9229 16.0256 22.1298C15.921 22.1562 15.8262 22.2123 15.7527 22.2912C15.6791 22.3702 15.63 22.4687 15.6111 22.575L15.0456 25.76H12.9095L12.3823 22.5892C12.3644 22.4814 12.3153 22.3811 12.241 22.3008C12.1668 22.2206 12.0707 22.1638 11.9645 22.1375C11.145 21.9355 10.3724 21.6125 9.66547 21.1881C9.57266 21.1325 9.46574 21.105 9.35762 21.1089C9.24951 21.1128 9.14484 21.1479 9.05625 21.21L6.4225 23.0552L4.91313 21.5436L6.77469 18.9416C6.83831 18.8524 6.87439 18.7466 6.87847 18.6371C6.88256 18.5277 6.85446 18.4194 6.79766 18.3258C6.36869 17.617 6.04426 16.8444 5.83953 16.0212C5.81334 15.9164 5.75737 15.8214 5.67839 15.7476C5.5994 15.6739 5.50076 15.6246 5.39438 15.6056L2.24109 15.0456V12.9095L5.39219 12.3856C5.49991 12.3678 5.60006 12.3188 5.68031 12.2448C5.76057 12.1707 5.81743 12.0748 5.84391 11.9689C6.05039 11.143 6.37466 10.3705 6.80203 9.66328C6.85839 9.57043 6.88653 9.4632 6.88304 9.35465C6.87954 9.24609 6.84456 9.1409 6.78234 9.05187L4.94266 6.4225L6.45313 4.91312L9.06391 6.77906C9.15273 6.84239 9.25811 6.87841 9.36711 6.88268C9.47611 6.88696 9.58399 6.8593 9.6775 6.80312C10.3807 6.3808 11.1551 6.06036 11.9755 5.85921C12.0821 5.83296 12.1787 5.77594 12.2532 5.69523C12.3276 5.61453 12.3767 5.51371 12.3944 5.40531L12.9117 2.24ZM14 9.52C11.5324 9.52 9.52 11.5324 9.52 14C9.52 16.4676 11.5324 18.48 14 18.48C16.4676 18.48 18.48 16.4676 18.48 14C18.48 11.5324 16.4676 9.52 14 9.52ZM14 10.64C15.8623 10.64 17.36 12.1377 17.36 14C17.36 15.8623 15.8623 17.36 14 17.36C12.1377 17.36 10.64 15.8623 10.64 14C10.64 12.1377 12.1377 10.64 14 10.64Z"/>
</mask>
<path d="M12.4348 1.12C12.3021 1.12007 12.1737 1.16728 12.0725 1.25322C11.9714 1.33916 11.904 1.45823 11.8825 1.58921L11.3378 4.92406C10.6828 5.11459 10.0583 5.37167 9.46969 5.69187L6.71781 3.7264C6.61007 3.64947 6.47856 3.61319 6.34661 3.624C6.21466 3.63481 6.09081 3.69202 5.99703 3.78546L3.81828 5.96203C3.72518 6.0552 3.66789 6.1782 3.65649 6.30943C3.64508 6.44065 3.6803 6.57169 3.75594 6.67953L5.69188 9.4489C5.36673 10.0409 5.10396 10.669 4.90875 11.3302L1.58813 11.8825C1.45755 11.9045 1.33898 11.972 1.25348 12.0732C1.16798 12.1743 1.12108 12.3024 1.12109 12.4348V15.5148C1.12086 15.6465 1.16699 15.774 1.25139 15.875C1.3358 15.976 1.45308 16.044 1.58266 16.0672L4.90547 16.6556C5.09962 17.3156 5.36073 17.9441 5.68641 18.5369L3.72641 21.2789C3.64947 21.3866 3.61319 21.5182 3.624 21.6501C3.63482 21.7821 3.69202 21.9059 3.78547 21.9997L5.96313 24.1784C6.05609 24.2714 6.17882 24.3287 6.3098 24.3403C6.44078 24.3519 6.57167 24.3171 6.67953 24.2419L9.45438 22.2994C10.0447 22.6215 10.6708 22.8804 11.328 23.0727L11.8825 26.4119C11.9043 26.5427 11.9717 26.6615 12.0729 26.7472C12.174 26.8329 12.3023 26.88 12.4348 26.88H15.5148C15.6466 26.8802 15.7743 26.8339 15.8753 26.7493C15.9763 26.6647 16.0443 26.5471 16.0672 26.4173L16.6611 23.065C17.3156 22.8698 17.9387 22.607 18.5259 22.283L21.3194 24.243C21.4272 24.3186 21.5582 24.3538 21.6895 24.3424C21.8207 24.331 21.9437 24.2737 22.0369 24.1806L24.2145 22.0008C24.3084 21.9067 24.3657 21.7824 24.3764 21.6499C24.387 21.5175 24.3502 21.3856 24.2725 21.2778L22.2808 18.5128C22.5992 17.9284 22.8558 17.309 23.0464 16.6589L26.4162 16.0683C26.546 16.0454 26.6636 15.9774 26.7482 15.8764C26.8328 15.7754 26.8791 15.6477 26.8789 15.5159V12.4359C26.8788 12.3032 26.8316 12.1748 26.7457 12.0736C26.6597 11.9725 26.5407 11.9051 26.4097 11.8836L23.0453 11.3334C22.8534 10.6841 22.5962 10.0658 22.2775 9.48172L24.2419 6.68281C24.3175 6.57498 24.3527 6.44393 24.3413 6.31271C24.3299 6.18149 24.2726 6.05848 24.1795 5.96531L22.0008 3.78765C21.9067 3.6938 21.7824 3.63645 21.6499 3.62583C21.5175 3.61521 21.3856 3.65202 21.2778 3.72968L18.5205 5.71265C17.933 5.38989 17.3094 5.12847 16.6534 4.935L16.0672 1.58375C16.0445 1.45377 15.9766 1.33597 15.8756 1.25113C15.7745 1.16629 15.6468 1.11985 15.5148 1.12H12.4348ZM12.9117 2.24H15.0445L15.6023 5.4239C15.6209 5.53069 15.6701 5.62979 15.7438 5.7092C15.8176 5.7886 15.9128 5.8449 16.018 5.87125C16.837 6.07534 17.6062 6.39886 18.3083 6.8239C18.4021 6.88078 18.5107 6.90882 18.6203 6.90454C18.73 6.90026 18.836 6.86385 18.9252 6.79984L21.5458 4.9164L23.0541 6.42468L21.1881 9.08359C21.1258 9.17229 21.0906 9.27717 21.0867 9.3855C21.0828 9.49384 21.1104 9.60097 21.1662 9.6939C21.5871 10.3944 21.9063 11.1588 22.1102 11.9733C22.1367 12.0794 22.1937 12.1753 22.2742 12.2494C22.3547 12.3235 22.455 12.3723 22.563 12.39L25.7589 12.9128V15.0456L22.5564 15.6078C22.4495 15.6267 22.3505 15.6763 22.2712 15.7505C22.192 15.8246 22.1361 15.9202 22.1102 16.0256C21.9086 16.8391 21.5892 17.6034 21.1684 18.3039C21.1119 18.3978 21.0842 18.5061 21.0887 18.6156C21.0932 18.725 21.1296 18.8308 21.1936 18.9197L23.0858 21.5458L21.5775 23.0552L18.923 21.1925C18.8338 21.1301 18.7284 21.0949 18.6196 21.0914C18.5109 21.088 18.4034 21.1162 18.3105 21.1728C17.6119 21.5978 16.8419 21.9229 16.0256 22.1298C15.921 22.1562 15.8262 22.2123 15.7527 22.2912C15.6791 22.3702 15.63 22.4687 15.6111 22.575L15.0456 25.76H12.9095L12.3823 22.5892C12.3644 22.4814 12.3153 22.3811 12.241 22.3008C12.1668 22.2206 12.0707 22.1638 11.9645 22.1375C11.145 21.9355 10.3724 21.6125 9.66547 21.1881C9.57266 21.1325 9.46574 21.105 9.35762 21.1089C9.24951 21.1128 9.14484 21.1479 9.05625 21.21L6.4225 23.0552L4.91313 21.5436L6.77469 18.9416C6.83831 18.8524 6.87439 18.7466 6.87847 18.6371C6.88256 18.5277 6.85446 18.4194 6.79766 18.3258C6.36869 17.617 6.04426 16.8444 5.83953 16.0212C5.81334 15.9164 5.75737 15.8214 5.67839 15.7476C5.5994 15.6739 5.50076 15.6246 5.39438 15.6056L2.24109 15.0456V12.9095L5.39219 12.3856C5.49991 12.3678 5.60006 12.3188 5.68031 12.2448C5.76057 12.1707 5.81743 12.0748 5.84391 11.9689C6.05039 11.143 6.37466 10.3705 6.80203 9.66328C6.85839 9.57043 6.88653 9.4632 6.88304 9.35465C6.87954 9.24609 6.84456 9.1409 6.78234 9.05187L4.94266 6.4225L6.45313 4.91312L9.06391 6.77906C9.15273 6.84239 9.25811 6.87841 9.36711 6.88268C9.47611 6.88696 9.58399 6.8593 9.6775 6.80312C10.3807 6.3808 11.1551 6.06036 11.9755 5.85921C12.0821 5.83296 12.1787 5.77594 12.2532 5.69523C12.3276 5.61453 12.3767 5.51371 12.3944 5.40531L12.9117 2.24ZM14 9.52C11.5324 9.52 9.52 11.5324 9.52 14C9.52 16.4676 11.5324 18.48 14 18.48C16.4676 18.48 18.48 16.4676 18.48 14C18.48 11.5324 16.4676 9.52 14 9.52ZM14 10.64C15.8623 10.64 17.36 12.1377 17.36 14C17.36 15.8623 15.8623 17.36 14 17.36C12.1377 17.36 10.64 15.8623 10.64 14C10.64 12.1377 12.1377 10.64 14 10.64Z" fill="white"/>
<path d="M12.4348 1.12C12.3021 1.12007 12.1737 1.16728 12.0725 1.25322C11.9714 1.33916 11.904 1.45823 11.8825 1.58921L11.3378 4.92406C10.6828 5.11459 10.0583 5.37167 9.46969 5.69187L6.71781 3.7264C6.61007 3.64947 6.47856 3.61319 6.34661 3.624C6.21466 3.63481 6.09081 3.69202 5.99703 3.78546L3.81828 5.96203C3.72518 6.0552 3.66789 6.1782 3.65649 6.30943C3.64508 6.44065 3.6803 6.57169 3.75594 6.67953L5.69188 9.4489C5.36673 10.0409 5.10396 10.669 4.90875 11.3302L1.58813 11.8825C1.45755 11.9045 1.33898 11.972 1.25348 12.0732C1.16798 12.1743 1.12108 12.3024 1.12109 12.4348V15.5148C1.12086 15.6465 1.16699 15.774 1.25139 15.875C1.3358 15.976 1.45308 16.044 1.58266 16.0672L4.90547 16.6556C5.09962 17.3156 5.36073 17.9441 5.68641 18.5369L3.72641 21.2789C3.64947 21.3866 3.61319 21.5182 3.624 21.6501C3.63482 21.7821 3.69202 21.9059 3.78547 21.9997L5.96313 24.1784C6.05609 24.2714 6.17882 24.3287 6.3098 24.3403C6.44078 24.3519 6.57167 24.3171 6.67953 24.2419L9.45438 22.2994C10.0447 22.6215 10.6708 22.8804 11.328 23.0727L11.8825 26.4119C11.9043 26.5427 11.9717 26.6615 12.0729 26.7472C12.174 26.8329 12.3023 26.88 12.4348 26.88H15.5148C15.6466 26.8802 15.7743 26.8339 15.8753 26.7493C15.9763 26.6647 16.0443 26.5471 16.0672 26.4173L16.6611 23.065C17.3156 22.8698 17.9387 22.607 18.5259 22.283L21.3194 24.243C21.4272 24.3186 21.5582 24.3538 21.6895 24.3424C21.8207 24.331 21.9437 24.2737 22.0369 24.1806L24.2145 22.0008C24.3084 21.9067 24.3657 21.7824 24.3764 21.6499C24.387 21.5175 24.3502 21.3856 24.2725 21.2778L22.2808 18.5128C22.5992 17.9284 22.8558 17.309 23.0464 16.6589L26.4162 16.0683C26.546 16.0454 26.6636 15.9774 26.7482 15.8764C26.8328 15.7754 26.8791 15.6477 26.8789 15.5159V12.4359C26.8788 12.3032 26.8316 12.1748 26.7457 12.0736C26.6597 11.9725 26.5407 11.9051 26.4097 11.8836L23.0453 11.3334C22.8534 10.6841 22.5962 10.0658 22.2775 9.48172L24.2419 6.68281C24.3175 6.57498 24.3527 6.44393 24.3413 6.31271C24.3299 6.18149 24.2726 6.05848 24.1795 5.96531L22.0008 3.78765C21.9067 3.6938 21.7824 3.63645 21.6499 3.62583C21.5175 3.61521 21.3856 3.65202 21.2778 3.72968L18.5205 5.71265C17.933 5.38989 17.3094 5.12847 16.6534 4.935L16.0672 1.58375C16.0445 1.45377 15.9766 1.33597 15.8756 1.25113C15.7745 1.16629 15.6468 1.11985 15.5148 1.12H12.4348ZM12.9117 2.24H15.0445L15.6023 5.4239C15.6209 5.53069 15.6701 5.62979 15.7438 5.7092C15.8176 5.7886 15.9128 5.8449 16.018 5.87125C16.837 6.07534 17.6062 6.39886 18.3083 6.8239C18.4021 6.88078 18.5107 6.90882 18.6203 6.90454C18.73 6.90026 18.836 6.86385 18.9252 6.79984L21.5458 4.9164L23.0541 6.42468L21.1881 9.08359C21.1258 9.17229 21.0906 9.27717 21.0867 9.3855C21.0828 9.49384 21.1104 9.60097 21.1662 9.6939C21.5871 10.3944 21.9063 11.1588 22.1102 11.9733C22.1367 12.0794 22.1937 12.1753 22.2742 12.2494C22.3547 12.3235 22.455 12.3723 22.563 12.39L25.7589 12.9128V15.0456L22.5564 15.6078C22.4495 15.6267 22.3505 15.6763 22.2712 15.7505C22.192 15.8246 22.1361 15.9202 22.1102 16.0256C21.9086 16.8391 21.5892 17.6034 21.1684 18.3039C21.1119 18.3978 21.0842 18.5061 21.0887 18.6156C21.0932 18.725 21.1296 18.8308 21.1936 18.9197L23.0858 21.5458L21.5775 23.0552L18.923 21.1925C18.8338 21.1301 18.7284 21.0949 18.6196 21.0914C18.5109 21.088 18.4034 21.1162 18.3105 21.1728C17.6119 21.5978 16.8419 21.9229 16.0256 22.1298C15.921 22.1562 15.8262 22.2123 15.7527 22.2912C15.6791 22.3702 15.63 22.4687 15.6111 22.575L15.0456 25.76H12.9095L12.3823 22.5892C12.3644 22.4814 12.3153 22.3811 12.241 22.3008C12.1668 22.2206 12.0707 22.1638 11.9645 22.1375C11.145 21.9355 10.3724 21.6125 9.66547 21.1881C9.57266 21.1325 9.46574 21.105 9.35762 21.1089C9.24951 21.1128 9.14484 21.1479 9.05625 21.21L6.4225 23.0552L4.91313 21.5436L6.77469 18.9416C6.83831 18.8524 6.87439 18.7466 6.87847 18.6371C6.88256 18.5277 6.85446 18.4194 6.79766 18.3258C6.36869 17.617 6.04426 16.8444 5.83953 16.0212C5.81334 15.9164 5.75737 15.8214 5.67839 15.7476C5.5994 15.6739 5.50076 15.6246 5.39438 15.6056L2.24109 15.0456V12.9095L5.39219 12.3856C5.49991 12.3678 5.60006 12.3188 5.68031 12.2448C5.76057 12.1707 5.81743 12.0748 5.84391 11.9689C6.05039 11.143 6.37466 10.3705 6.80203 9.66328C6.85839 9.57043 6.88653 9.4632 6.88304 9.35465C6.87954 9.24609 6.84456 9.1409 6.78234 9.05187L4.94266 6.4225L6.45313 4.91312L9.06391 6.77906C9.15273 6.84239 9.25811 6.87841 9.36711 6.88268C9.47611 6.88696 9.58399 6.8593 9.6775 6.80312C10.3807 6.3808 11.1551 6.06036 11.9755 5.85921C12.0821 5.83296 12.1787 5.77594 12.2532 5.69523C12.3276 5.61453 12.3767 5.51371 12.3944 5.40531L12.9117 2.24ZM14 9.52C11.5324 9.52 9.52 11.5324 9.52 14C9.52 16.4676 11.5324 18.48 14 18.48C16.4676 18.48 18.48 16.4676 18.48 14C18.48 11.5324 16.4676 9.52 14 9.52ZM14 10.64C15.8623 10.64 17.36 12.1377 17.36 14C17.36 15.8623 15.8623 17.36 14 17.36C12.1377 17.36 10.64 15.8623 10.64 14C10.64 12.1377 12.1377 10.64 14 10.64Z" stroke="white" stroke-width="0.6" mask="url(#path-1-outside-1_9_77)"/>
</svg>
