<svg width="28" height="18" viewBox="0 0 28 18" fill="none" xmlns="http://www.w3.org/2000/svg">
<path d="M5.94984 17.3334C6.79984 17.3334 7.58317 16.8501 7.94984 16.1001L10.3165 11.3667C10.5498 10.9001 10.6665 10.4001 10.6665 9.88341L10.6665 2.33341C10.6665 1.41675 9.91651 0.666748 8.99984 0.666748L2.33317 0.666748C1.4165 0.666748 0.666504 1.41675 0.666504 2.33341L0.666504 9.00008C0.666504 9.91675 1.4165 10.6667 2.33317 10.6667H5.66651L3.94984 14.1001C3.19984 15.5834 4.28317 17.3334 5.94984 17.3334ZM22.6165 17.3334C23.4665 17.3334 24.2498 16.8501 24.6165 16.1001L26.9832 11.3667C27.2165 10.9001 27.3332 10.4001 27.3332 9.88341V2.33341C27.3332 1.41675 26.5832 0.666748 25.6665 0.666748L18.9998 0.666748C18.0832 0.666748 17.3332 1.41675 17.3332 2.33341V9.00008C17.3332 9.91675 18.0832 10.6667 18.9998 10.6667H22.3332L20.6165 14.1001C19.8665 15.5834 20.9498 17.3334 22.6165 17.3334Z" fill="white"/>
</svg>
