<svg width="33" height="28" viewBox="0 0 33 28" fill="none" xmlns="http://www.w3.org/2000/svg">
<path d="M10.3618 5.66675L30.3618 5.66675C31.2785 5.66675 32.0285 4.91675 32.0285 4.00008C32.0285 3.08342 31.2785 2.33342 30.3618 2.33342L10.3618 2.33342C9.44515 2.33342 8.69515 3.08342 8.69515 4.00008C8.69515 4.91675 9.44515 5.66675 10.3618 5.66675ZM30.3618 22.3334L10.3618 22.3334C9.44515 22.3334 8.69515 23.0834 8.69515 24.0001C8.69515 24.9168 9.44515 25.6668 10.3618 25.6668L30.3618 25.6668C31.2785 25.6668 32.0285 24.9168 32.0285 24.0001C32.0285 23.0834 31.2785 22.3334 30.3618 22.3334ZM30.3618 12.3334L10.3618 12.3334C9.44515 12.3334 8.69515 13.0834 8.69515 14.0001C8.69515 14.9168 9.44515 15.6668 10.3618 15.6668L30.3618 15.6668C31.2785 15.6668 32.0285 14.9168 32.0285 14.0001C32.0285 13.0834 31.2785 12.3334 30.3618 12.3334ZM4.52848 20.6668H1.19515C0.728483 20.6668 0.361816 21.0334 0.361816 21.5001C0.361816 21.9668 0.728483 22.3334 1.19515 22.3334H3.69515V23.1668H2.86182C2.39515 23.1668 2.02848 23.5334 2.02848 24.0001C2.02848 24.4668 2.39515 24.8334 2.86182 24.8334H3.69515V25.6668H1.19515C0.728483 25.6668 0.361816 26.0334 0.361816 26.5001C0.361816 26.9668 0.728483 27.3334 1.19515 27.3334H4.52848C4.99515 27.3334 5.36182 26.9668 5.36182 26.5001L5.36182 21.5001C5.36182 21.0334 4.99515 20.6668 4.52848 20.6668ZM1.19515 2.33342H2.02848L2.02848 6.50008C2.02848 6.96675 2.39515 7.33342 2.86182 7.33342C3.32848 7.33342 3.69515 6.96675 3.69515 6.50008L3.69515 1.50008C3.69515 1.03341 3.32848 0.666748 2.86182 0.666748L1.19515 0.666748C0.728483 0.666748 0.361816 1.03341 0.361816 1.50008C0.361816 1.96675 0.728483 2.33342 1.19515 2.33342ZM4.52848 10.6668H1.19515C0.728483 10.6668 0.361816 11.0334 0.361816 11.5001C0.361816 11.9668 0.728483 12.3334 1.19515 12.3334H3.36182L0.561816 15.6001C0.428483 15.7501 0.361816 15.9501 0.361816 16.1334L0.361816 16.5001C0.361816 16.9668 0.728483 17.3334 1.19515 17.3334H4.52848C4.99515 17.3334 5.36182 16.9668 5.36182 16.5001C5.36182 16.0334 4.99515 15.6668 4.52848 15.6668H2.36182L5.16182 12.4001C5.29515 12.2501 5.36182 12.0501 5.36182 11.8668V11.5001C5.36182 11.0334 4.99515 10.6668 4.52848 10.6668Z" fill="white"/>
</svg>
