<svg width="18" height="24" viewBox="0 0 18 24" fill="none" xmlns="http://www.w3.org/2000/svg">
<path d="M14.3333 11.3167C15.95 10.2 17.0833 8.36666 17.0833 6.66667C17.0833 2.9 14.1667 0 10.4167 0L1.66667 0C0.75 0 0 0.75 0 1.66667L0 21.6667C0 22.5833 0.75 23.3333 1.66667 23.3333L11.3 23.3333C14.75 23.3333 17.9 20.5167 17.9167 17.05C17.9333 14.5 16.5 12.3167 14.3333 11.3167ZM5 4.16667L10 4.16667C11.3833 4.16667 12.5 5.28333 12.5 6.66667C12.5 8.05 11.3833 9.16666 10 9.16666L5 9.16666L5 4.16667ZM10.8333 19.1667H5V14.1667L10.8333 14.1667C12.2167 14.1667 13.3333 15.2833 13.3333 16.6667C13.3333 18.05 12.2167 19.1667 10.8333 19.1667Z" fill="white"/>
</svg>
