<svg width="24" height="30" viewBox="0 0 24 30" fill="none" xmlns="http://www.w3.org/2000/svg">
<path d="M13.3598 23.25C18.4098 22.6 22.0431 18.0667 22.0431 12.9833L22.0431 2.08333C22.0431 0.933333 21.1098 0 19.9598 0C18.8098 0 17.8765 0.933333 17.8765 2.08333L17.8765 13.1667C17.8765 15.95 15.9931 18.4833 13.2598 19.0333C9.5098 19.8167 6.2098 16.95 6.2098 13.3333L6.2098 2.08333C6.2098 0.933333 5.27647 0 4.12647 0C2.97647 0 2.04313 0.933333 2.04313 2.08333L2.04313 13.3333C2.04313 19.2833 7.2598 24.0333 13.3598 23.25ZM0.376465 28.3333C0.376465 29.25 1.12646 30 2.04313 30L22.0431 30C22.9598 30 23.7098 29.25 23.7098 28.3333C23.7098 27.4167 22.9598 26.6667 22.0431 26.6667L2.04313 26.6667C1.12646 26.6667 0.376465 27.4167 0.376465 28.3333Z" fill="white"/>
</svg>
