<svg width="33" height="19" viewBox="0 0 33 19" fill="none" xmlns="http://www.w3.org/2000/svg">
<path d="M10.8229 15.8208L4.32288 9.32083L10.8229 2.82083C11.4729 2.17083 11.4729 1.1375 10.8229 0.4875C10.1729 -0.1625 9.13955 -0.1625 8.48955 0.4875L0.839551 8.1375C0.189551 8.7875 0.189551 9.8375 0.839551 10.4875L8.48955 18.1542C9.13955 18.8042 10.1729 18.8042 10.8229 18.1542C11.4729 17.5042 11.4729 16.4708 10.8229 15.8208ZM21.8229 15.8208L28.3229 9.32083L21.8229 2.82083C21.1729 2.17083 21.1729 1.1375 21.8229 0.4875C22.4729 -0.1625 23.5062 -0.1625 24.1562 0.4875L31.8062 8.1375C32.4562 8.7875 32.4562 9.8375 31.8062 10.4875L24.1562 18.1542C23.5062 18.8042 22.4729 18.8042 21.8229 18.1542C21.1729 17.5042 21.1729 16.4708 21.8229 15.8208Z" fill="white"/>
</svg>
