<svg width="23" height="22" viewBox="0 0 23 22" fill="none" xmlns="http://www.w3.org/2000/svg">
<path d="M17.3332 0.399902H2.83317C1.49192 0.399902 0.416504 1.4799 0.416504 2.7999V19.5999C0.416504 20.9199 1.49192 21.9999 2.83317 21.9999H19.7498C21.079 21.9999 22.1665 20.9199 22.1665 19.5999V5.1999L17.3332 0.399902ZM19.7498 19.5999H2.83317V2.7999H16.3303L19.7498 6.1959V19.5999ZM11.2915 11.1999C9.28567 11.1999 7.6665 12.8079 7.6665 14.7999C7.6665 16.7919 9.28567 18.3999 11.2915 18.3999C13.2973 18.3999 14.9165 16.7919 14.9165 14.7999C14.9165 12.8079 13.2973 11.1999 11.2915 11.1999ZM4.0415 3.9999H14.9165V8.7999H4.0415V3.9999Z" fill="#36FF56"/>
</svg>
