<svg width="34" height="18" viewBox="0 0 34 18" fill="none" xmlns="http://www.w3.org/2000/svg">
<path d="M3.62881 7.9665C4.09548 5.5165 6.39548 3.83317 8.89548 3.83317L13.7788 3.83317C14.6455 3.83317 15.3621 3.1165 15.3621 2.24984C15.3621 1.38317 14.6455 0.666504 13.7788 0.666504L9.06214 0.666504C4.71214 0.666504 0.828812 3.84984 0.412145 8.18317C-0.0711879 13.1498 3.82881 17.3332 8.69548 17.3332L13.7788 17.3332C14.6455 17.3332 15.3621 16.6165 15.3621 15.7498C15.3621 14.8832 14.6455 14.1665 13.7788 14.1665H8.69548C5.51215 14.1665 2.99548 11.2665 3.62881 7.9665ZM12.0288 10.6665L22.0288 10.6665C22.9455 10.6665 23.6955 9.9165 23.6955 8.99984C23.6955 8.08317 22.9455 7.33317 22.0288 7.33317L12.0288 7.33317C11.1121 7.33317 10.3621 8.08317 10.3621 8.99984C10.3621 9.9165 11.1121 10.6665 12.0288 10.6665ZM24.9955 0.666504L20.2788 0.666504C19.4121 0.666504 18.6955 1.38317 18.6955 2.24984C18.6955 3.1165 19.4121 3.83317 20.2788 3.83317L25.1621 3.83317C27.6621 3.83317 29.9621 5.5165 30.4288 7.9665C31.0621 11.2665 28.5455 14.1665 25.3621 14.1665H20.2788C19.4121 14.1665 18.6955 14.8832 18.6955 15.7498C18.6955 16.6165 19.4121 17.3332 20.2788 17.3332H25.3621C30.2288 17.3332 34.1288 13.1498 33.6621 8.18317C33.2455 3.84984 29.3455 0.666504 24.9955 0.666504Z" fill="white"/>
</svg>
