<svg width="31" height="26" viewBox="0 0 31 26" fill="none" xmlns="http://www.w3.org/2000/svg">
<path d="M2.52441 10.6668C1.14108 10.6668 0.0244141 11.7834 0.0244141 13.1668C0.0244141 14.5501 1.14108 15.6668 2.52441 15.6668C3.90775 15.6668 5.02441 14.5501 5.02441 13.1668C5.02441 11.7834 3.90775 10.6668 2.52441 10.6668ZM2.52441 0.666748C1.14108 0.666748 0.0244141 1.78342 0.0244141 3.16675C0.0244141 4.55008 1.14108 5.66675 2.52441 5.66675C3.90775 5.66675 5.02441 4.55008 5.02441 3.16675C5.02441 1.78342 3.90775 0.666748 2.52441 0.666748ZM2.52441 20.6668C1.14108 20.6668 0.0244141 21.8001 0.0244141 23.1668C0.0244141 24.5334 1.15775 25.6668 2.52441 25.6668C3.89108 25.6668 5.02441 24.5334 5.02441 23.1668C5.02441 21.8001 3.90775 20.6668 2.52441 20.6668ZM9.19108 24.8334L29.1911 24.8334C30.1077 24.8334 30.8577 24.0834 30.8577 23.1668C30.8577 22.2501 30.1077 21.5001 29.1911 21.5001L9.19108 21.5001C8.27441 21.5001 7.52441 22.2501 7.52441 23.1668C7.52441 24.0834 8.27441 24.8334 9.19108 24.8334ZM9.19108 14.8334L29.1911 14.8334C30.1077 14.8334 30.8577 14.0834 30.8577 13.1668C30.8577 12.2501 30.1077 11.5001 29.1911 11.5001L9.19108 11.5001C8.27441 11.5001 7.52441 12.2501 7.52441 13.1668C7.52441 14.0834 8.27441 14.8334 9.19108 14.8334ZM7.52441 3.16675C7.52441 4.08342 8.27441 4.83342 9.19108 4.83342L29.1911 4.83342C30.1077 4.83342 30.8577 4.08342 30.8577 3.16675C30.8577 2.25008 30.1077 1.50008 29.1911 1.50008L9.19108 1.50008C8.27441 1.50008 7.52441 2.25008 7.52441 3.16675Z" fill="white"/>
</svg>
