<svg width="31" height="30" viewBox="0 0 31 30" fill="none" xmlns="http://www.w3.org/2000/svg">
<path d="M26.6715 -0.000244141L3.33822 -0.000244141C1.50488 -0.000244141 0.00488281 1.49976 0.00488281 3.33309L0.00488281 26.6664C0.00488281 28.4998 1.50488 29.9998 3.33822 29.9998L26.6715 29.9998C28.5049 29.9998 30.0049 28.4998 30.0049 26.6664L30.0049 3.33309C30.0049 1.49976 28.5049 -0.000244141 26.6715 -0.000244141ZM26.6715 26.6664L3.33822 26.6664L3.33822 3.33309L26.6715 3.33309L26.6715 26.6664ZM24.9882 9.99976L22.6382 7.63309L11.6549 18.6164L7.35488 14.3331L4.98822 16.6831L11.6549 23.3331L24.9882 9.99976Z" fill="white"/>
</svg>
