<svg width="21" height="24" viewBox="0 0 21 24" fill="none" xmlns="http://www.w3.org/2000/svg">
<path d="M6.71452 3.16675C6.71452 4.55008 7.83118 5.66675 9.21452 5.66675H10.3979L4.69785 19.0001H2.54785C1.16452 19.0001 0.0478516 20.1167 0.0478516 21.5001C0.0478516 22.8834 1.16452 24.0001 2.54785 24.0001H10.8812C12.2645 24.0001 13.3812 22.8834 13.3812 21.5001C13.3812 20.1167 12.2645 19.0001 10.8812 19.0001H9.69785L15.3979 5.66675H17.5479C18.9312 5.66675 20.0479 4.55008 20.0479 3.16675C20.0479 1.78341 18.9312 0.666748 17.5479 0.666748L9.21452 0.666748C7.83118 0.666748 6.71452 1.78341 6.71452 3.16675Z" fill="white"/>
</svg>
